# xmcd
#
# Track frame offsets:
#	150
#	2289
#	16850
#	28365
#	42871
#	57888
#	71624
#	88763
#	91317
#	102282
#	112991
#	132789
#	145550
#	162257
#	163008
#	179036
#
# Disc length: 2875 seconds
#
# Revision: 1
# Processed by: cddbd v1.5.2PL0 Copyright (c) Steve Scherf et al.
# Submitted via: audiograbber 1.82.01
#
DISCID=c80b3910
DTITLE=Laborde - Kvitko - Tango-Tango
DYEAR=2006
DGENRE=Tango
TTITLE0=Intro
TTITLE1=Destellos
TTITLE2=Antiguo reloj de cobre
TTITLE3=Inspiración
TTITLE4=Galleguita
TTITLE5=Recuerdo
TTITLE6=Descalzos
TTITLE7=Dialogo 1
TTITLE8=Cuando me entres a fallar
TTITLE9=Milonga de carnaval
TTITLE10=Cristal
TTITLE11=Mentiras
TTITLE12=Despues
TTITLE13=Dialogo 2
TTITLE14=9 de julio
TTITLE15=Sueños de juventud
EXTD=
EXTT0=
EXTT1=
EXTT2=
EXTT3=
EXTT4=
EXTT5=
EXTT6=
EXTT7=
EXTT8=
EXTT9=
EXTT10=
EXTT11=
EXTT12=
EXTT13=
EXTT14=
EXTT15=
PLAYORDER=
